<svg width="70" height="70" viewBox="0 0 70 70" fill="none" xmlns="http://www.w3.org/2000/svg">
<g filter="url(#filter0_dd_99_17524)">
<circle cx="35" cy="31" r="29" fill="white"/>
</g>
<circle cx="35" cy="31" r="26" fill="#EBE0FF"/>
<path d="M44.3333 40.3333V32.1667M35 40.3333V28.6667M25.6667 40.3333L25.6667 35.6667M36.6411 22.8654L42.671 25.1266M33.5986 23.3011L27.0669 28.1998M45.5708 24.5126C46.2542 25.196 46.2542 26.304 45.5708 26.9874C44.8873 27.6709 43.7793 27.6709 43.0959 26.9874C42.4125 26.304 42.4125 25.196 43.0959 24.5126C43.7793 23.8291 44.8873 23.8291 45.5708 24.5126ZM26.9041 28.0126C27.5875 28.696 27.5875 29.804 26.9041 30.4874C26.2207 31.1709 25.1126 31.1709 24.4292 30.4874C23.7458 29.804 23.7458 28.696 24.4292 28.0126C25.1126 27.3291 26.2207 27.3291 26.9041 28.0126ZM36.2374 21.0126C36.9208 21.696 36.9208 22.804 36.2374 23.4874C35.554 24.1709 34.446 24.1709 33.7626 23.4874C33.0791 22.804 33.0791 21.696 33.7626 21.0126C34.446 20.3291 35.554 20.3291 36.2374 21.0126Z" stroke="#4700C6" stroke-width="2" stroke-linecap="round" stroke-linejoin="round"/>
<defs>
<filter id="filter0_dd_99_17524" x="0" y="0" width="70" height="70" filterUnits="userSpaceOnUse" color-interpolation-filters="sRGB">
<feFlood flood-opacity="0" result="BackgroundImageFix"/>
<feColorMatrix in="SourceAlpha" type="matrix" values="0 0 0 0 0 0 0 0 0 0 0 0 0 0 0 0 0 0 127 0" result="hardAlpha"/>
<feMorphology radius="2" operator="erode" in="SourceAlpha" result="effect1_dropShadow_99_17524"/>
<feOffset dy="2"/>
<feGaussianBlur stdDeviation="2"/>
<feColorMatrix type="matrix" values="0 0 0 0 0.0627451 0 0 0 0 0.0941176 0 0 0 0 0.156863 0 0 0 0.06 0"/>
<feBlend mode="normal" in2="BackgroundImageFix" result="effect1_dropShadow_99_17524"/>
<feColorMatrix in="SourceAlpha" type="matrix" values="0 0 0 0 0 0 0 0 0 0 0 0 0 0 0 0 0 0 127 0" result="hardAlpha"/>
<feMorphology radius="2" operator="erode" in="SourceAlpha" result="effect2_dropShadow_99_17524"/>
<feOffset dy="4"/>
<feGaussianBlur stdDeviation="4"/>
<feColorMatrix type="matrix" values="0 0 0 0 0.0627451 0 0 0 0 0.0941176 0 0 0 0 0.156863 0 0 0 0.1 0"/>
<feBlend mode="normal" in2="effect1_dropShadow_99_17524" result="effect2_dropShadow_99_17524"/>
<feBlend mode="normal" in="SourceGraphic" in2="effect2_dropShadow_99_17524" result="shape"/>
</filter>
</defs>
</svg>
