<svg width="20" height="20" viewBox="0 0 20 20" fill="none" xmlns="http://www.w3.org/2000/svg">
<path d="M10.8333 4.16667C10.8333 5.08714 8.78126 5.83333 6.24996 5.83333C3.71865 5.83333 1.66663 5.08714 1.66663 4.16667M10.8333 4.16667C10.8333 3.24619 8.78126 2.5 6.24996 2.5C3.71865 2.5 1.66663 3.24619 1.66663 4.16667M10.8333 4.16667V7.88096C9.81537 8.18665 9.16663 8.64911 9.16663 9.16667M1.66663 4.16667V14.1667C1.66663 15.0871 3.71865 15.8333 6.24996 15.8333C7.35798 15.8333 8.37418 15.6904 9.16663 15.4524V9.16667M1.66663 7.5C1.66663 8.42047 3.71865 9.16667 6.24996 9.16667C7.35798 9.16667 8.37418 9.02369 9.16663 8.78571M1.66663 10.8333C1.66663 11.7538 3.71865 12.5 6.24996 12.5C7.35798 12.5 8.37418 12.357 9.16663 12.119M18.3333 9.16667C18.3333 10.0871 16.2813 10.8333 13.75 10.8333C11.2187 10.8333 9.16663 10.0871 9.16663 9.16667M18.3333 9.16667C18.3333 8.24619 16.2813 7.5 13.75 7.5C11.2187 7.5 9.16663 8.24619 9.16663 9.16667M18.3333 9.16667V15.8333C18.3333 16.7538 16.2813 17.5 13.75 17.5C11.2187 17.5 9.16663 16.7538 9.16663 15.8333V9.16667M18.3333 12.5C18.3333 13.4205 16.2813 14.1667 13.75 14.1667C11.2187 14.1667 9.16663 13.4205 9.16663 12.5" stroke="#667085" stroke-width="1.64" stroke-linecap="round" stroke-linejoin="round"/>
</svg>
