<svg width="19" height="19" viewBox="0 0 19 19" fill="none" xmlns="http://www.w3.org/2000/svg">
<path d="M8.5 2.76777H5C3.59987 2.76777 2.8998 2.76777 2.36502 3.04025C1.89462 3.27994 1.51217 3.66239 1.27248 4.13279C1 4.66757 1 5.36764 1 6.76777V13.7678C1 15.1679 1 15.868 1.27248 16.4027C1.51217 16.8731 1.89462 17.2556 2.36502 17.4953C2.8998 17.7678 3.59987 17.7678 5 17.7678H12C13.4001 17.7678 14.1002 17.7678 14.635 17.4953C15.1054 17.2556 15.4878 16.8731 15.7275 16.4027C16 15.868 16 15.1679 16 13.7678V10.2678M5.99998 12.7678H7.39543C7.80308 12.7678 8.00691 12.7678 8.19872 12.7217C8.36878 12.6809 8.53135 12.6135 8.68047 12.5222C8.84867 12.4191 8.9928 12.275 9.28105 11.9867L17.25 4.01777C17.9404 3.32741 17.9404 2.20812 17.25 1.51777C16.5596 0.827412 15.4404 0.827411 14.75 1.51777L6.78103 9.48672C6.49277 9.77497 6.34865 9.9191 6.24558 10.0873C6.1542 10.2364 6.08686 10.399 6.04603 10.569C5.99998 10.7609 5.99998 10.9647 5.99998 11.3723V12.7678Z" stroke="white" stroke-width="1.64" stroke-linecap="round" stroke-linejoin="round"/>
</svg>
