<svg width="115" height="123" viewBox="0 0 115 123" fill="none" xmlns="http://www.w3.org/2000/svg">
<path d="M96.4992 114.877L96.4993 114.877L96.4956 114.873C95.939 114.234 95.8145 113.747 95.8133 113.407C95.8121 113.045 95.9494 112.644 96.2546 112.176C96.5619 111.705 96.9804 111.254 97.4276 110.802C97.4915 110.737 97.5585 110.67 97.6272 110.601C97.9845 110.244 98.3892 109.839 98.6417 109.478L98.646 109.472L98.6503 109.466C99.2037 108.651 99.9894 108.225 101.028 107.663L101.035 107.659C102 107.136 103.223 106.474 104.011 105.079L104.015 105.071L104.02 105.062C104.342 104.469 104.97 104.06 105.825 104.039C106.032 104.072 106.15 104.101 106.248 104.161C106.392 104.263 106.531 104.475 106.608 104.783C106.684 105.085 106.661 105.323 106.637 105.414C106.576 105.543 106.473 105.68 106.271 105.904C106.248 105.93 106.222 105.958 106.195 105.988C106.003 106.199 105.724 106.505 105.504 106.872L105.504 106.872L105.5 106.879C105.11 107.543 104.959 108.328 104.885 109.021C104.826 109.572 104.808 110.168 104.791 110.706C104.786 110.846 104.782 110.982 104.777 111.112C104.752 111.787 104.713 112.329 104.611 112.751C104.511 113.16 104.389 113.309 104.29 113.377L104.28 113.384L104.271 113.391C104.083 113.528 103.733 113.569 102.974 113.479C102.889 113.469 102.798 113.458 102.702 113.445C102.438 113.411 102.142 113.373 101.867 113.355C101.482 113.33 101.036 113.333 100.596 113.46L100.595 113.461C99.9434 113.651 99.457 114.062 99.0949 114.4C98.9768 114.511 98.8752 114.609 98.7832 114.698C98.5581 114.917 98.3912 115.079 98.1822 115.222L98.1617 115.236L98.1419 115.251C97.8135 115.501 97.1341 115.614 96.4992 114.877Z" stroke="#BB6BD9" stroke-width="2" stroke-miterlimit="10"/>
<path d="M107.279 110.685L107.279 110.685L107.28 110.696C107.289 111.105 107.308 111.502 107.328 111.897C107.359 112.533 107.39 113.164 107.379 113.83C107.361 114.889 107.229 115.674 106.953 116.16C106.737 116.531 106.415 116.749 105.854 116.888C105.42 116.989 104.894 116.971 104.23 116.88C103.929 116.839 103.619 116.786 103.287 116.73C103.256 116.724 103.225 116.719 103.194 116.714C102.835 116.653 102.454 116.589 102.064 116.539C101.369 116.436 100.62 116.394 99.9001 116.601C99.0779 116.798 98.4174 117.242 97.8523 117.703C97.5963 117.912 97.3453 118.137 97.1099 118.348C97.0859 118.369 97.062 118.391 97.0383 118.412C96.7756 118.647 96.526 118.868 96.2645 119.075L96.2645 119.075L96.2571 119.081C95.1335 119.99 93.459 119.783 92.0686 118.109C91.5848 117.526 91.197 116.935 90.8987 116.338C90.4535 115.389 90.087 114.316 89.9519 113.32C89.8149 112.31 89.933 111.53 90.2741 110.996C90.278 110.992 90.3182 110.948 90.4464 110.883C90.6037 110.802 90.8071 110.73 91.079 110.644C91.1194 110.631 91.1619 110.618 91.2061 110.604C91.4301 110.534 91.6963 110.451 91.9371 110.353C92.2209 110.237 92.5854 110.058 92.8856 109.746L92.8912 109.74L92.8967 109.734C93.311 109.289 93.6801 108.872 94.0247 108.483C94.6265 107.804 95.1537 107.209 95.7172 106.696L95.7249 106.689L95.7325 106.681C96.5843 105.873 97.2977 104.932 97.9428 104.081C98.0179 103.982 98.0922 103.884 98.1656 103.788C98.8925 102.834 99.5524 102.015 100.34 101.402C100.567 101.225 100.922 101.128 101.543 101.006C101.582 100.998 101.621 100.99 101.662 100.983C102.163 100.886 102.855 100.752 103.441 100.39C103.725 100.244 103.944 100.052 104.147 99.7747L104.157 99.7608L104.167 99.7465C104.887 98.6924 106.057 98.1986 107.463 98.349L107.477 98.3504L107.491 98.3515C107.809 98.3748 108.137 98.4683 108.509 98.7287L108.647 98.825C109.102 99.2351 109.466 99.8852 109.68 100.603C109.917 101.398 109.908 102.062 109.812 102.367L109.806 102.385L109.801 102.404C109.711 102.723 109.541 102.988 109.258 103.328C109.205 103.392 109.141 103.465 109.071 103.546C108.823 103.831 108.494 104.209 108.246 104.618C108.07 104.899 107.904 105.193 107.769 105.554C107.438 106.4 107.32 107.314 107.279 108.17C107.246 108.844 107.259 109.548 107.271 110.193C107.274 110.361 107.277 110.526 107.279 110.685Z" stroke="#BB6BD9" stroke-width="2" stroke-miterlimit="10"/>
<path d="M109.304 119.486L109.3 119.492L109.295 119.498C108.851 120.142 108.193 120.4 107.257 120.482C106.552 120.539 105.77 120.429 104.877 120.245C104.58 120.183 104.262 120.111 103.932 120.037C103.324 119.899 102.675 119.752 102.05 119.647C101.073 119.463 100.164 119.484 99.3358 119.637L99.3234 119.639L99.3111 119.642C98.2582 119.869 97.3974 120.415 96.6367 121.017C96.259 121.316 95.8919 121.641 95.5404 121.952L95.5264 121.964C95.1739 122.276 94.8337 122.577 94.4761 122.865C92.3732 124.545 89.756 123.871 87.6842 121.346C86.9347 120.372 86.2746 119.435 85.8309 118.465L85.831 118.465L85.8255 118.454C85.1453 117.014 84.4309 115.27 84.078 113.606C83.7197 111.916 83.788 110.567 84.3436 109.666C84.3515 109.66 84.4314 109.586 84.6995 109.5C85.003 109.402 85.3871 109.338 85.854 109.27C85.9017 109.263 85.9504 109.256 85.9999 109.249C86.4024 109.191 86.8589 109.125 87.2669 109.022C87.7005 108.911 88.2646 108.718 88.6852 108.276L88.6852 108.276L88.693 108.267C89.2161 107.704 89.7202 107.121 90.1969 106.569C90.443 106.284 90.6818 106.007 90.9121 105.746C91.6085 104.958 92.2709 104.261 92.9881 103.682C94.428 102.533 95.3734 100.851 96.1931 99.3729C96.2126 99.3376 96.2321 99.3025 96.2515 99.2675C97.0872 97.7602 97.8051 96.4654 98.8085 95.5666L98.8126 95.5628C98.8565 95.5231 98.9803 95.448 99.2765 95.4075C99.5668 95.3678 99.9211 95.3735 100.349 95.3986C100.463 95.4053 100.586 95.4137 100.713 95.4224C101.026 95.4438 101.366 95.467 101.678 95.4719C102.118 95.4787 102.62 95.4545 103.085 95.3006C103.408 95.1984 103.802 95.0084 104.121 94.6104L104.146 94.58L104.168 94.5476C105.289 92.923 107.093 92.3204 109.097 92.5862C109.658 92.6707 110.198 92.8367 110.811 93.296L111.029 93.4593C111.768 94.1311 112.356 95.1752 112.711 96.2891C113.1 97.5133 113.137 98.5932 112.97 99.156L112.966 99.1693L112.962 99.1827C112.802 99.7703 112.505 100.216 112.083 100.734C112.007 100.828 111.923 100.928 111.833 101.034C111.464 101.472 111.007 102.014 110.654 102.653L110.648 102.665L110.642 102.676C110.455 103.035 110.24 103.499 110.092 104C109.454 106.116 109.597 108.627 109.713 110.673C109.727 110.903 109.739 111.127 109.751 111.344L109.751 111.344L109.751 111.352C109.781 111.858 109.825 112.375 109.87 112.902C109.954 113.878 110.04 114.889 110.043 115.923C110.047 117.513 109.834 118.741 109.304 119.486Z" stroke="#BB6BD9" stroke-width="2" stroke-miterlimit="10"/>
<path d="M112.293 112.045L112.293 112.044C112.267 111.606 112.233 111.142 112.198 110.662C112.12 109.607 112.037 108.475 112.015 107.375C111.983 105.76 112.076 104.07 112.535 102.5C112.699 101.868 112.956 101.304 113.168 100.84L113.184 100.806L113.195 100.781L113.208 100.756C113.648 99.9021 114.239 99.2018 114.732 98.6172C114.843 98.4863 114.948 98.3612 115.046 98.2415C115.611 97.5502 116.037 96.9227 116.254 96.0606L116.256 96.0513L116.256 96.0513C116.477 95.2048 116.374 93.6999 115.836 92.0478C115.312 90.4383 114.439 88.895 113.337 87.9239C113.324 87.9158 113.31 87.9064 113.295 87.8958C113.264 87.8737 113.222 87.8409 113.175 87.7952C112.379 87.1463 111.604 86.9142 110.869 86.8045C108.221 86.4091 105.836 87.1111 104.335 89.2777C104.107 89.6284 103.806 89.8134 103.585 89.9171C103.376 90.0156 103.153 90.0787 103.007 90.12L102.985 90.1264L102.942 90.1385L102.899 90.1462C102.324 90.2477 101.692 90.1851 101.122 90.0937C100.753 90.0347 100.35 89.952 99.9679 89.8737C99.7649 89.8322 99.5681 89.7918 99.3859 89.757C98.8214 89.6489 98.3432 89.581 97.9553 89.5916C97.5601 89.6024 97.4094 89.6923 97.364 89.7335C96.1676 90.8969 95.3681 92.6159 94.4532 94.583C94.3947 94.7088 94.3357 94.8356 94.2761 94.9633C93.3328 96.9856 92.2311 99.2487 90.3677 100.652C89.3426 101.435 88.4429 102.389 87.5157 103.462C87.2249 103.799 86.9268 104.153 86.6205 104.516C85.9727 105.285 85.2884 106.097 84.56 106.879L84.5553 106.884L84.5553 106.884C84.042 107.428 83.3127 107.631 82.7353 107.738C82.1858 107.839 81.564 107.885 80.9974 107.927C80.9295 107.932 80.8623 107.937 80.7962 107.942C80.1448 107.991 79.5816 108.043 79.1329 108.156C78.9127 108.211 78.7561 108.273 78.6503 108.333C78.558 108.385 78.5306 108.421 78.5283 108.424L78.5273 108.426C77.7099 109.704 77.7057 111.659 78.2952 114.034C78.87 116.35 79.9283 118.745 80.8205 120.637L112.293 112.045ZM112.293 112.045C112.333 112.691 112.394 113.368 112.458 114.066C112.574 115.341 112.696 116.688 112.703 118.062C112.714 120.183 112.427 121.897 111.633 122.937C110.976 123.784 109.908 124.086 108.623 124.092C107.661 124.089 106.638 123.885 105.524 123.614C105.266 123.552 105.002 123.485 104.733 123.418C103.877 123.202 102.974 122.975 102.083 122.827C100.852 122.57 99.7555 122.557 98.7147 122.756L98.7121 122.757C96.5937 123.169 94.9577 124.638 93.3849 126.051C93.1492 126.263 92.9148 126.473 92.6805 126.679L92.6792 126.68C91.1821 127.996 89.565 128.286 87.9735 127.864C86.3496 127.434 84.7266 126.249 83.3616 124.567L83.3617 124.567M112.293 112.045L83.3617 124.567M83.3617 124.567L83.3548 124.559M83.3617 124.567L83.3548 124.559M83.3548 124.559C82.3397 123.336 81.47 122.012 80.8206 120.637L83.3548 124.559Z" stroke="#BB6BD9" stroke-width="2" stroke-miterlimit="10"/>
<path d="M113.961 126.337L113.959 126.34C113.029 127.488 111.579 127.789 109.956 127.715C108.746 127.647 107.488 127.347 106.138 126.984C105.903 126.921 105.665 126.856 105.425 126.79C104.309 126.485 103.136 126.164 101.956 125.958C100.498 125.667 99.2154 125.621 97.9683 125.865L97.9664 125.866C95.3697 126.379 93.3677 128.188 91.323 130.036C91.1517 130.191 90.9801 130.346 90.8078 130.501L90.8068 130.502C88.8645 132.25 86.772 132.615 84.7291 132.054C82.6507 131.483 80.5974 129.941 78.8879 127.822C77.6224 126.227 76.4961 124.587 75.6949 122.825L75.6949 122.825L75.6921 122.819C74.5926 120.44 73.1847 117.389 72.3787 114.422C71.5541 111.386 71.4701 108.83 72.5425 107.162C72.5893 107.092 72.7983 106.91 73.4438 106.78C74.0459 106.657 74.794 106.622 75.6315 106.594C75.7082 106.592 75.7858 106.589 75.8639 106.587C76.604 106.563 77.4004 106.538 78.0989 106.436C78.8222 106.331 79.7006 106.117 80.2953 105.486C81.2286 104.504 82.0907 103.464 82.912 102.474C83.263 102.05 83.6065 101.636 83.945 101.239C85.099 99.8852 86.2456 98.6658 87.6101 97.6808C89.9 96.0528 91.145 93.2279 92.2034 90.6615C92.2911 90.4486 92.3777 90.2374 92.4635 90.0282C93.4646 87.5861 94.3561 85.4112 95.7835 83.9568L95.7858 83.9545C95.8313 83.9078 96.0097 83.7907 96.531 83.8113C97.0258 83.8308 97.6392 83.9657 98.3498 84.1585C98.5957 84.2252 98.8602 84.301 99.1312 84.3787C99.5948 84.5115 100.077 84.6499 100.518 84.7574C101.223 84.9293 101.986 85.0682 102.663 85.0006L102.69 84.9979L102.718 84.9934C103.157 84.9207 103.836 84.795 104.328 84.1212L104.336 84.1101L104.344 84.0987C106.264 81.3244 109.284 80.4999 112.53 81.0503L112.538 81.0517L112.546 81.0529C113.451 81.188 114.428 81.4805 115.467 82.3291C115.489 82.3535 115.511 82.3759 115.534 82.3967C115.578 82.4383 115.62 82.4702 115.65 82.4924L115.653 82.4944C117.102 83.7618 118.233 85.7423 118.91 87.7775C119.599 89.8464 119.749 91.7579 119.461 92.8693L119.461 92.8693L119.459 92.8768C119.174 94.0034 118.612 94.8087 117.897 95.6814C117.79 95.812 117.678 95.9463 117.561 96.0849C116.933 96.8339 116.199 97.7095 115.671 98.8185C115.343 99.4885 115.067 100.193 114.886 100.966C114.385 102.872 114.302 104.941 114.366 106.934C114.411 108.356 114.536 109.801 114.652 111.143C114.698 111.675 114.742 112.19 114.78 112.682C114.834 113.435 114.915 114.24 115.001 115.08C115.164 116.677 115.339 118.401 115.36 120.145C115.392 122.812 115.033 125.023 113.961 126.337ZM115.706 82.5305C115.707 82.531 115.707 82.5309 115.706 82.5302L115.706 82.5305Z" stroke="#BB6BD9" stroke-width="2" stroke-miterlimit="10"/>
<path d="M117.257 113.359L117.257 113.364C117.327 114.198 117.427 115.099 117.532 116.044C117.749 117.989 117.987 120.125 118.021 122.264C118.072 125.451 117.641 128.165 116.274 129.797C115.109 131.158 113.287 131.485 111.278 131.32C109.82 131.185 108.334 130.798 106.77 130.347C106.483 130.265 106.193 130.179 105.9 130.093C104.62 129.718 103.287 129.327 101.943 129.053C100.264 128.692 98.7647 128.651 97.3692 128.903L97.3692 128.903L97.359 128.905C94.187 129.517 91.7858 131.709 89.2137 134.056C89.1456 134.118 89.0773 134.181 89.009 134.243L89.0084 134.244C86.6201 136.425 84.059 136.858 81.5757 136.156C79.0528 135.442 76.5827 133.542 74.5409 131.002C73.0142 129.092 71.654 127.101 70.6557 124.952L70.6557 124.952L70.653 124.946C70.6229 124.882 70.5927 124.818 70.5622 124.754C69.2524 121.98 67.5556 118.386 66.5489 114.866C65.4987 111.194 65.3223 108.014 66.6476 105.923C66.7429 105.787 67.0556 105.566 67.8557 105.429C68.6109 105.299 69.5439 105.281 70.5668 105.275C70.654 105.274 70.742 105.274 70.8305 105.274C71.7443 105.269 72.7147 105.264 73.561 105.163C74.434 105.058 75.4558 104.829 76.1261 104.114L76.1294 104.111C77.1913 102.969 78.1751 101.763 79.1161 100.609C79.5813 100.039 80.0361 99.4816 80.4847 98.951C81.8693 97.3132 83.2651 95.8393 84.9592 94.6629L84.9592 94.6629L84.9645 94.6593C87.6184 92.7906 88.9938 89.4311 90.166 86.3287C90.2717 86.049 90.3758 85.7712 90.479 85.4958C91.5746 82.5732 92.5698 79.9183 94.2327 78.1378L94.2327 78.1378L94.2379 78.1321C94.3001 78.0646 94.5219 77.9241 95.1593 77.9764C95.7603 78.0256 96.5066 78.2271 97.3578 78.5039C97.6878 78.6112 98.0492 78.7354 98.4176 78.8621C98.9349 79.0399 99.466 79.2225 99.9434 79.3696C100.772 79.6249 101.645 79.8436 102.406 79.8326C103.111 79.8457 103.833 79.65 104.358 78.9681L104.375 78.946L104.391 78.923C106.695 75.5876 110.402 74.6477 114.228 75.3186C115.36 75.5198 116.556 75.8835 117.85 76.9552C117.874 76.9795 117.896 76.9989 117.912 77.0129C117.916 77.0162 117.92 77.0195 117.923 77.0227L117.924 77.0231L118.021 77.1078C119.786 78.6493 121.16 81.0588 121.987 83.5208C122.826 86.0174 123.033 88.3499 122.69 89.7163C122.332 91.1455 121.626 92.1471 120.764 93.1966C120.635 93.3532 120.5 93.5131 120.362 93.6773C119.607 94.5753 118.745 95.6005 118.135 96.9122C117.749 97.7094 117.464 98.5458 117.249 99.3723L117.248 99.3757C116.66 101.662 116.592 104.137 116.699 106.521C116.769 108.066 116.917 109.645 117.057 111.125C117.13 111.903 117.201 112.654 117.257 113.359Z" stroke="#BB6BD9" stroke-width="2" stroke-miterlimit="10"/>
<path d="M125.971 86.5848L125.973 86.577C126.383 84.9452 126.122 82.1961 125.133 79.2723C124.156 76.3846 122.54 73.5428 120.47 71.7105L120.376 71.6272L120.364 71.6097C120.335 71.5841 120.299 71.5505 120.261 71.5088C118.726 70.2373 117.327 69.8076 115.983 69.5414C111.522 68.7433 107.226 69.7754 104.538 73.6669C103.955 74.535 102.999 74.6475 102.333 74.6241C101.47 74.5986 100.466 74.309 99.494 73.9719C98.9333 73.7775 98.3189 73.543 97.7174 73.3134C97.2905 73.1504 96.8701 72.99 96.4801 72.8481C95.4866 72.4868 94.6032 72.2114 93.8888 72.121C93.1348 72.0256 92.8494 72.1732 92.761 72.2627C91.7469 73.3789 90.9433 74.8335 90.2234 76.5126C89.6444 77.8632 89.1417 79.3025 88.6238 80.7857C88.4928 81.1607 88.3609 81.5386 88.2265 81.9185C86.9347 85.5699 85.4101 89.4771 82.348 91.5589L82.3457 91.5604C80.3223 92.9279 78.6751 94.6725 77.057 96.5978C76.5539 97.1963 76.0472 97.821 75.531 98.4573C74.4167 99.8307 73.2585 101.258 71.9988 102.595M125.971 86.5848L71.9976 102.596C71.998 102.595 71.9984 102.595 71.9988 102.595M125.971 86.5848C125.561 88.2646 124.731 89.4459 123.726 90.6765C123.576 90.8598 123.421 91.0462 123.262 91.2368C122.383 92.2893 121.394 93.4732 120.69 94.9929M125.971 86.5848L121.518 95.4621M71.9988 102.595C71.6084 103.011 71.1187 103.261 70.6397 103.422C70.1547 103.585 69.6164 103.677 69.0698 103.731C68.0913 103.828 66.9659 103.813 65.8945 103.798C65.7783 103.797 65.6628 103.795 65.5482 103.794C64.3408 103.779 63.2274 103.781 62.3273 103.923C61.3657 104.076 60.9663 104.346 60.8358 104.553L60.8316 104.56L60.8316 104.56C60.0403 105.793 59.6994 107.354 59.7291 109.192C59.7588 111.034 60.161 113.085 60.7901 115.209C61.9672 119.185 63.8785 123.227 65.3697 126.382C65.4751 126.605 65.5783 126.823 65.679 127.037L71.9988 102.595ZM119.786 114.068C119.868 114.995 119.985 116.005 120.108 117.072C120.371 119.345 120.664 121.874 120.708 124.395C120.773 128.117 120.268 131.333 118.608 133.247C117.167 134.905 114.937 135.19 112.576 134.94C110.896 134.755 109.194 134.269 107.414 133.712C107.116 133.618 106.815 133.522 106.511 133.426C105.031 132.955 103.496 132.467 101.949 132.132C100.053 131.702 98.3329 131.665 96.7461 131.958C93.0949 132.625 90.3442 135.164 87.3108 137.964L87.2677 138.004C87.267 138.005 87.2662 138.005 87.2655 138.006C84.4182 140.605 81.3797 141.097 78.451 140.248C75.4815 139.386 72.5969 137.129 70.2247 134.173C68.4914 131.951 66.8735 129.569 65.6791 127.037L120.723 113.926M119.786 114.068C119.786 114.067 119.786 114.066 119.786 114.065L120.723 113.926M119.786 114.068C119.786 114.069 119.786 114.069 119.786 114.07L120.723 113.926M119.786 114.068C119.722 113.378 119.649 112.657 119.573 111.916C119.383 110.067 119.181 108.088 119.087 106.125C118.955 103.36 119.031 100.508 119.681 97.8707M120.723 113.926C120.657 113.212 120.581 112.477 120.505 111.726C120.051 107.303 119.544 102.352 120.588 98.1178C120.809 97.2076 121.125 96.2767 121.518 95.4621M119.681 97.8707C119.681 97.8716 119.681 97.8724 119.681 97.8733L120.588 98.1177L119.682 97.8687C119.682 97.8693 119.681 97.87 119.681 97.8707ZM119.681 97.8707C119.917 96.8973 120.258 95.8903 120.69 94.9929M120.69 94.9929C120.689 94.9958 120.687 94.9986 120.686 95.0015L121.518 95.4621M120.69 94.9929C120.691 94.9901 120.693 94.9873 120.694 94.9846L121.518 95.4621M120.434 71.6665C120.442 71.6727 120.441 71.672 120.433 71.6652L120.434 71.6665Z" stroke="#BB6BD9" stroke-width="2" stroke-miterlimit="10"/>
<path d="M120.889 136.696L120.889 136.696L120.882 136.704C119.228 138.602 116.574 138.902 113.881 138.569C111.959 138.315 110.027 137.733 108.016 137.088C107.775 137.011 107.532 136.932 107.289 136.854C105.524 136.283 103.696 135.693 101.839 135.305C99.7145 134.843 97.8143 134.774 96.0291 135.11C91.9731 135.82 88.9067 138.621 85.4592 141.771L85.4017 141.824L85.4017 141.824L85.395 141.83C82.1136 144.882 78.5963 145.452 75.2125 144.461C71.7853 143.457 68.4692 140.837 65.7667 137.462L65.7643 137.459C63.7123 134.916 61.8668 132.189 60.5138 129.253L60.5125 129.251C60.3061 128.806 60.0893 128.344 59.865 127.865C58.2235 124.363 56.1797 120.001 54.8723 115.697C54.1308 113.255 53.645 110.888 53.5928 108.756C53.5408 106.627 53.9211 104.804 54.842 103.359L54.842 103.359L54.8446 103.355C54.9133 103.246 55.059 103.101 55.3683 102.962C55.6779 102.823 56.0922 102.716 56.6134 102.644C57.6617 102.499 58.9588 102.518 60.3523 102.555C60.4637 102.558 60.5758 102.561 60.6884 102.564C61.9476 102.597 63.2648 102.633 64.4057 102.532C65.031 102.478 65.6411 102.38 66.1865 102.202C66.7249 102.027 67.267 101.754 67.6932 101.299C69.1455 99.7574 70.4685 98.1108 71.7427 96.525C72.327 95.7978 72.9011 95.0833 73.4726 94.3977C75.3203 92.181 77.211 90.1719 79.5654 88.6126L79.57 88.6095C83.0182 86.2974 84.682 81.8598 86.0922 77.6674C86.2417 77.2231 86.3884 76.7807 86.5341 76.3413C87.0956 74.6478 87.6426 72.9982 88.2781 71.4503C89.0745 69.5109 89.975 67.824 91.131 66.5319C91.2525 66.3994 91.5989 66.2311 92.4728 66.3641C93.2957 66.4894 94.3111 66.8393 95.4462 67.2896C95.8851 67.4637 96.3519 67.6572 96.8253 67.8534C97.5218 68.1422 98.2324 68.4367 98.889 68.684C99.9928 69.0997 101.122 69.4551 102.092 69.5026C102.929 69.5813 103.864 69.4072 104.5 68.5359L104.508 68.5247L104.516 68.5133C107.626 64.0189 112.583 62.9041 117.624 63.8243C119.171 64.122 120.851 64.6344 122.594 66.1413L122.664 66.2021L122.696 66.2199C122.723 66.244 122.781 66.2966 122.859 66.3515C125.224 68.4605 127.073 71.7029 128.195 74.9886C129.339 78.334 129.655 81.5001 129.177 83.3981L129.175 83.4058L129.173 83.4135C128.706 85.3779 127.743 86.7463 126.595 88.1505C126.423 88.3605 126.245 88.5733 126.063 88.7906C125.06 89.9908 123.944 91.3248 123.159 93.0475C122.683 94.0898 122.295 95.1923 122.035 96.3245C121.322 99.3172 121.255 102.552 121.418 105.694C121.531 107.853 121.757 110.029 121.969 112.072C122.064 112.987 122.157 113.876 122.235 114.724C122.332 115.816 122.476 117.011 122.627 118.275C122.935 120.838 123.277 123.685 123.338 126.524C123.429 130.773 122.859 134.484 120.889 136.696Z" stroke="#BB6BD9" stroke-width="2" stroke-miterlimit="10"/>
<path d="M115.157 142.137L115.163 142.138C118.19 142.59 121.23 142.278 123.2 140.1C125.457 137.583 126.1 133.362 125.994 128.584C125.921 125.325 125.516 122.041 125.154 119.115C124.988 117.767 124.831 116.496 124.72 115.338C124.626 114.38 124.515 113.374 124.401 112.337C124.15 110.062 123.883 107.635 123.742 105.223C123.535 101.693 123.587 98.0604 124.367 94.7083L124.369 94.6975C124.673 93.4453 125.039 92.2313 125.573 91.0606C126.446 89.1235 127.694 87.629 128.83 86.269C129.023 86.0377 129.212 85.8104 129.397 85.5854C130.692 84.0036 131.796 82.4542 132.344 80.239C132.865 78.0588 132.494 74.4779 131.213 70.7175C129.951 67.0138 127.875 63.3436 125.196 60.926C125.119 60.8718 125.062 60.8201 125.036 60.7964L125.005 60.7788L124.934 60.7183C122.941 58.9986 121.052 58.4194 119.291 58.0554C113.662 56.9801 108.076 58.2073 104.541 63.2931C103.855 64.3254 102.728 64.3824 101.927 64.3329L101.917 64.3323L101.917 64.3322C100.843 64.2521 99.5763 63.8235 98.3241 63.3221C97.5931 63.0294 96.8046 62.6849 96.0296 62.3462C95.4887 62.1098 94.9544 61.8763 94.4507 61.6653C93.174 61.1305 92.0258 60.7089 91.0977 60.5476C90.1039 60.375 89.7103 60.5621 89.5727 60.72L89.5723 60.7205C88.2889 62.1914 87.3004 64.1148 86.4331 66.3178C85.7528 68.0454 85.1691 69.884 84.5718 71.7651C84.4045 72.292 84.2362 72.8222 84.0644 73.3543C82.5355 78.0883 80.7251 83.0467 76.8945 85.553L76.8932 85.5538C74.2046 87.3068 72.0537 89.5809 69.9701 92.0793C69.3035 92.8787 68.6359 93.7116 67.9576 94.558C66.5485 96.3161 65.0931 98.1319 63.5035 99.825C63.0423 100.318 62.4493 100.614 61.8519 100.803C61.247 100.994 60.5662 101.097 59.8633 101.152C58.5751 101.252 57.0839 101.196 55.6503 101.143C55.5277 101.139 55.4056 101.134 55.284 101.13C53.7056 101.072 52.2239 101.034 51.0227 101.185C50.4249 101.26 49.9422 101.377 49.5765 101.536C49.2109 101.695 49.0241 101.868 48.93 102.015C47.8752 103.663 47.4511 105.744 47.5225 108.163C47.594 110.586 48.1618 113.273 49.0167 116.039C50.5001 120.836 52.7886 125.694 54.631 129.604C54.9159 130.209 55.1902 130.791 55.4491 131.347L115.157 142.137ZM115.157 142.137C113.005 141.833 110.856 141.175 108.634 140.446C108.324 140.345 108.013 140.242 107.7 140.138C105.79 139.506 103.823 138.855 101.823 138.403C99.4505 137.831 97.3302 137.767 95.3927 138.113L95.3886 138.114C90.8972 138.939 87.4514 142.015 83.6037 145.566L83.6016 145.568C79.8596 149.04 75.8629 149.67 72.0324 148.53C68.1575 147.378 64.4263 144.4 61.3937 140.607L61.3899 140.602M115.157 142.137L61.3899 140.602M61.3899 140.602C59.0749 137.743 56.9981 134.666 55.4493 131.347L61.3899 140.602Z" stroke="#BB6BD9" stroke-width="2" stroke-miterlimit="10"/>
<path d="M128.141 115.874C128.259 117.084 128.432 118.449 128.617 119.916C129.626 127.911 131.019 138.937 126.135 144.287C123.605 147.088 119.729 147.348 116.307 146.802C113.566 146.373 110.863 145.466 108.158 144.558C105.991 143.83 103.822 143.102 101.63 142.619L128.141 115.874ZM128.141 115.874C128.03 114.728 127.898 113.539 127.763 112.321M128.141 115.874L127.763 112.321M127.763 112.321C127.084 106.196 126.324 99.3314 127.671 93.4137L127.763 112.321ZM116.471 145.757L116.468 145.757C114.076 145.382 111.698 144.629 109.261 143.816C108.993 143.726 108.725 143.636 108.456 143.546C106.295 142.82 104.083 142.078 101.847 141.585C99.2425 140.98 96.9405 140.886 94.8052 141.275C89.9052 142.142 86.1204 145.443 81.8678 149.397C77.6457 153.305 73.1663 154.008 68.8903 152.729C64.5683 151.436 60.423 148.101 57.0477 143.871C54.4999 140.66 52.1916 137.232 50.4471 133.533C50.1193 132.83 49.7681 132.088 49.4013 131.313C47.3753 127.032 44.8741 121.746 43.227 116.518C42.256 113.436 41.6025 110.434 41.5088 107.723C41.4152 105.016 41.881 102.678 43.0706 100.827L43.0706 100.827L43.0739 100.822C43.1926 100.635 43.4183 100.431 43.8366 100.251C44.2549 100.07 44.8025 99.9408 45.4744 99.8602C46.8236 99.6985 48.4865 99.7525 50.248 99.8286C50.3887 99.8346 50.5301 99.8409 50.672 99.8471C52.2696 99.9174 53.9232 99.9901 55.3496 99.8899C56.1297 99.835 56.8809 99.7265 57.5451 99.5214C58.2016 99.3186 58.8452 98.9998 59.341 98.469C61.1227 96.5711 62.7383 94.5405 64.3033 92.5737C65.0476 91.6382 65.7804 90.7172 66.5141 89.8317C68.8228 87.0458 71.2187 84.5051 74.2586 82.5443L74.2609 82.5428C78.4723 79.8086 80.4222 74.3265 82.0697 69.0504C82.2555 68.4555 82.4375 67.8621 82.6185 67.2721C83.2604 65.1793 83.8893 63.1287 84.6269 61.2028C85.5687 58.7431 86.652 56.5886 88.0746 54.9411C88.2507 54.7398 88.7173 54.5448 89.8226 54.756C90.8587 54.954 92.1376 55.4474 93.5517 56.0661C94.1196 56.3145 94.721 56.5888 95.329 56.866C96.1784 57.2533 97.0404 57.6464 97.8417 57.9831C99.2276 58.5656 100.617 59.0637 101.79 59.1807C102.757 59.286 103.916 59.1473 104.627 58.1087C108.514 52.4801 114.735 51.1322 121.004 52.3388C122.935 52.7278 125.062 53.4084 127.31 55.3455L127.38 55.4057L127.392 55.4122C127.412 55.4324 127.447 55.4671 127.485 55.5012C127.512 55.5253 127.55 55.5568 127.596 55.5898C130.58 58.2626 132.901 62.3461 134.314 66.4675C135.747 70.6464 136.173 74.646 135.583 77.0923C134.979 79.5951 133.741 81.3331 132.301 83.0895C132.095 83.3413 131.883 83.5953 131.667 83.8533C130.408 85.3596 129.035 87.0012 128.082 89.1365L128.076 89.1482L128.071 89.16C127.538 90.43 127.09 91.7575 126.76 93.1805L126.759 93.1854C125.915 96.8937 125.871 100.911 126.109 104.82C126.269 107.43 126.559 110.057 126.833 112.527C126.967 113.737 127.097 114.909 127.205 116.023L127.205 116.024C127.329 117.292 127.506 118.693 127.694 120.181C128.103 123.418 128.565 127.072 128.651 130.694C128.776 135.999 128.06 140.728 125.488 143.545L125.485 143.549C123.3 145.968 119.832 146.293 116.471 145.757Z" stroke="#BB6BD9" stroke-width="2" stroke-miterlimit="10"/>
<path d="M101.737 144.68C98.8925 144.039 96.3782 143.949 94.0927 144.347C88.7514 145.217 84.6465 148.791 79.9974 153.14L79.9966 153.141C75.3582 157.489 70.4077 158.262 65.6796 156.838C60.905 155.399 56.3297 151.702 52.6253 147.056L52.6249 147.055C49.8344 143.56 47.2642 139.815 45.3373 135.675L45.3369 135.674C44.9586 134.863 44.5507 134.003 44.1236 133.103C41.9071 128.43 39.1718 122.663 37.3556 116.952C36.2743 113.551 35.5399 110.231 35.4258 107.227C35.3118 104.228 35.818 101.625 37.1378 99.5589C37.283 99.3337 37.5508 99.1017 38.0251 98.9022C38.4997 98.7025 39.1157 98.5634 39.8641 98.4799C41.3661 98.3124 43.2135 98.3857 45.1598 98.4829C45.3108 98.4905 45.4624 98.4981 45.6144 98.5059C47.3864 98.5957 49.2138 98.6883 50.7873 98.5878C51.645 98.5331 52.4667 98.4193 53.19 98.2001C53.9046 97.9837 54.5972 97.6427 55.1267 97.0763C57.1159 94.9772 58.9112 92.72 60.6543 90.5284C61.4526 89.5248 62.2399 88.535 63.0298 87.5804C65.577 84.5023 68.227 81.6876 71.6008 79.5336L71.6008 79.5335C76.2079 76.5918 78.2979 70.5843 80.0609 64.7611C80.2622 64.0962 80.4593 63.4325 80.6554 62.7723C81.3387 60.4721 82.0095 58.2137 82.8006 56.0928C83.8157 53.3716 84.9931 50.9822 86.5562 49.1577L86.5601 49.1532C86.7679 48.9078 87.3012 48.6988 88.5266 48.9482C89.6743 49.1818 91.0911 49.7482 92.6504 50.452C93.2818 50.737 93.9484 51.0502 94.6213 51.3665C95.5534 51.8045 96.4975 52.2482 97.377 52.6302C98.9033 53.2933 100.422 53.8584 101.694 53.9997C102.771 54.1229 103.983 54.002 104.771 52.9217L104.78 52.9104L104.788 52.8989C109.098 46.6694 115.98 45.2424 122.825 46.5708C124.935 46.9864 127.27 47.732 129.769 49.8823L129.787 49.8976L129.805 49.9119C129.809 49.9148 129.812 49.9167 129.853 49.9578L129.858 49.963C129.896 50.0011 129.961 50.0674 130.05 50.1389C133.349 53.1012 135.922 57.6274 137.489 62.1859C139.072 66.7906 139.554 71.2075 138.896 73.9207C138.224 76.6941 136.849 78.6222 135.268 80.5591C135.044 80.8337 134.813 81.1103 134.58 81.3906C133.199 83.0497 131.706 84.8434 130.67 87.175C130.013 88.5702 129.545 90.0515 129.2 91.597C128.259 95.66 128.215 100.071 128.488 104.364C128.672 107.253 129.006 110.153 129.319 112.876C129.47 114.182 129.615 115.447 129.737 116.651C129.873 118.07 130.071 119.645 130.282 121.324C130.726 124.855 131.228 128.845 131.324 132.8C131.465 138.651 130.682 143.895 127.815 146.997C125.313 149.694 121.463 150.032 117.761 149.376L117.754 149.375C115.123 148.931 112.527 148.076 109.866 147.163C109.638 147.085 109.41 147.006 109.181 146.927C106.757 146.093 104.273 145.238 101.737 144.68ZM101.737 144.68C101.738 144.68 101.739 144.68 101.74 144.68L101.525 145.715M101.737 144.68C101.737 144.68 101.736 144.68 101.736 144.679L101.525 145.715M101.525 145.715C98.7636 145.094 96.3597 145.014 94.2015 145.39L117.584 150.419C114.646 149.923 111.769 148.933 108.883 147.939C106.45 147.102 104.011 146.262 101.525 145.715Z" stroke="#BB6BD9" stroke-width="2" stroke-miterlimit="10"/>
<path d="M119.059 152.989L119.055 152.989C116.184 152.475 113.36 151.525 110.475 150.509C110.18 150.405 109.885 150.3 109.589 150.196C107.005 149.282 104.365 148.348 101.67 147.706L101.665 147.705C98.6118 146.998 95.9106 146.878 93.4264 147.319C87.6384 148.333 83.2567 152.137 78.1838 156.845L78.1811 156.847C73.0633 161.631 67.6234 162.471 62.4445 160.901C57.2183 159.316 52.2286 155.261 48.1948 150.198L48.1932 150.196C45.1442 146.39 42.3761 142.265 40.2515 137.739C39.8236 136.824 39.3603 135.85 38.8743 134.829C36.455 129.745 33.4712 123.475 31.4786 117.264C30.284 113.541 29.4672 109.9 29.3334 106.606C29.1997 103.316 29.7489 100.454 31.2034 98.184C31.3759 97.9198 31.6866 97.6591 32.2162 97.44C32.7466 97.2206 33.4302 97.0708 34.2539 96.983C35.9064 96.8068 37.9357 96.8961 40.0649 97.012C40.2367 97.0213 40.4091 97.0309 40.582 97.0404C42.5166 97.1472 44.5039 97.2569 46.2151 97.1586C47.1506 97.1049 48.0427 96.9875 48.8257 96.7577C49.6009 96.5303 50.3448 96.1711 50.9114 95.5747L50.9114 95.5748L50.9165 95.5693C53.0288 93.3139 54.9413 90.896 56.8016 88.5442C57.7068 87.3998 58.5996 86.2711 59.4971 85.1844C62.2723 81.8237 65.1744 78.7506 68.8837 76.4026L68.8847 76.402C71.3856 74.8145 73.1821 72.3857 74.585 69.5891C75.983 66.8021 77.0199 63.5881 77.9735 60.37C78.1938 59.6267 78.4094 58.8841 78.6239 58.1452C79.348 55.6509 80.0603 53.1975 80.9012 50.8922C81.9878 47.9128 83.2532 45.2891 84.9427 43.2842C85.1901 42.9934 85.7999 42.7796 87.1395 43.0716C88.3977 43.346 89.9485 43.9894 91.6485 44.7819C92.3426 45.1054 93.0736 45.4599 93.8108 45.8174C94.8223 46.3079 95.8455 46.8041 96.8011 47.2338C98.4626 47.9811 100.106 48.6177 101.478 48.7953C102.64 48.9671 103.982 48.8427 104.788 47.6511C109.523 40.8261 117.037 39.2861 124.473 40.7705C126.774 41.248 129.293 42.0502 132.012 44.3631C132.158 44.5414 132.318 44.6649 132.399 44.7273C136.013 47.9638 138.826 52.9162 140.541 57.8974C142.274 62.927 142.813 67.764 142.103 70.7322L142.102 70.7333C141.374 73.7936 139.873 75.9026 138.153 78.0088C137.905 78.3124 137.651 78.6176 137.393 78.927C135.892 80.7296 134.275 82.67 133.146 85.2089C132.434 86.7717 131.95 88.3869 131.563 90.0132L131.561 90.0211L131.56 90.029C130.567 94.467 130.537 99.2726 130.846 103.952C131.049 107.035 131.406 110.13 131.742 113.044C131.913 114.53 132.079 115.968 132.216 117.334C132.364 118.822 132.576 120.476 132.801 122.24C133.299 126.13 133.866 130.558 133.973 134.934C134.129 141.316 133.274 147.073 130.116 150.481L130.115 150.481C127.4 153.416 123.102 153.731 119.059 152.989Z" stroke="#BB6BD9" stroke-width="2" stroke-miterlimit="10"/>
<path d="M120.351 156.611L120.351 156.611C124.724 157.436 129.42 157.143 132.423 153.904L132.427 153.9C135.902 150.192 136.829 143.925 136.654 137.017C136.534 132.276 135.911 127.478 135.365 123.275C135.118 121.372 134.887 119.592 134.725 117.994M120.351 156.611L135.66 117.84M120.351 156.611C117.239 156.026 114.192 154.99 111.084 153.897C110.846 153.813 110.609 153.73 110.371 153.646C107.508 152.636 104.587 151.606 101.587 150.912L101.583 150.911C98.2835 150.167 95.432 150.062 92.7419 150.503L92.7364 150.504C86.5391 151.56 81.8169 155.59 76.3415 160.699L76.3373 160.703C70.7849 165.941 64.8736 166.85 59.2486 165.131C53.5751 163.398 48.1644 158.974 43.8009 153.495L43.7989 153.492C40.4555 149.322 37.426 144.881 35.1448 139.955L35.1447 139.955C34.6308 138.845 34.0674 137.657 33.4739 136.406C30.8968 130.971 27.7512 124.338 25.6228 117.759C24.3157 113.72 23.4147 109.764 23.2577 106.179C23.1009 102.598 23.6887 99.4703 25.2751 96.985C25.4672 96.6851 25.8128 96.3964 26.3946 96.157C26.9756 95.918 27.7231 95.7572 28.6205 95.6646C30.42 95.479 32.6322 95.5834 34.9468 95.716C35.1308 95.7266 35.3154 95.7373 35.5004 95.748C37.6084 95.8704 39.7695 95.996 41.628 95.8947C42.6422 95.8395 43.6057 95.7154 44.4484 95.4706C45.2829 95.2283 46.0764 94.8458 46.6764 94.213L46.6779 94.2114C48.9974 91.7549 51.0895 89.1107 53.1281 86.5339C54.0877 85.321 55.0354 84.1231 55.9895 82.9668C59.0032 79.3141 62.1596 75.9666 66.2033 73.4251M120.351 156.611L65.765 72.5082M134.725 117.994C134.725 117.994 134.725 117.994 134.725 117.993L135.66 117.84M134.725 117.994C134.725 117.995 134.725 117.996 134.725 117.997L135.66 117.84M134.725 117.994C134.574 116.54 134.392 115.01 134.205 113.429C133.829 110.262 133.429 106.891 133.201 103.529C132.858 98.4639 132.888 93.263 133.978 88.4697L133.979 88.4664C134.388 86.6868 134.917 84.9826 135.639 83.3L135.644 83.2887L135.644 83.2888C136.855 80.5462 138.602 78.444 140.232 76.4815C140.509 76.1482 140.782 75.8189 141.049 75.4912C142.916 73.2001 144.55 70.903 145.331 67.5905C146.099 64.3309 145.507 59.0822 143.632 53.6396C141.774 48.2451 138.726 42.872 134.797 39.326M135.66 117.84C135.506 116.351 135.322 114.803 135.133 113.212C134.197 105.323 133.138 96.4012 134.89 88.6976C135.286 86.9754 135.794 85.3397 136.485 83.7312C137.627 81.145 139.263 79.1729 140.895 77.2063C143.089 74.5629 145.274 71.9294 146.24 67.8275C147.926 60.674 143.567 45.8416 135.375 38.4707M134.797 39.326C134.799 39.3276 134.802 39.3292 134.804 39.3308C134.811 39.3362 134.817 39.3412 134.823 39.3456L135.375 38.4707M134.797 39.326C134.789 39.3182 134.78 39.3104 134.771 39.3026L135.375 38.4707M134.797 39.326C134.716 39.2634 134.558 39.1408 134.413 38.9643M135.375 38.4707C135.264 38.3842 135.152 38.2977 135.075 38.1814M135.075 38.1814L134.489 39.0291C134.464 39.0074 134.438 38.9858 134.413 38.9643M135.075 38.1814C131.951 35.5143 129.021 34.5529 126.371 34.0176M135.075 38.1814L134.312 38.8269C134.344 38.8758 134.378 38.9216 134.413 38.9643M134.413 38.9643C131.467 36.4743 128.713 35.5697 126.177 35.0569M126.371 34.0176L126.179 35.0574C126.178 35.0573 126.178 35.0571 126.177 35.0569M126.371 34.0176C118.145 32.4051 109.564 33.988 104.092 41.8686C103.552 42.6263 102.665 42.7733 101.477 42.6309C99.3631 42.329 96.4232 40.8762 93.4717 39.4177C88.9223 37.1696 84.3455 34.908 82.7242 36.8268M126.371 34.0176L126.174 35.0565C126.175 35.0566 126.176 35.0568 126.177 35.0569M126.177 35.0569C118.125 33.4793 109.984 35.0717 104.827 42.4992L104.82 42.5102L104.82 42.5101C103.936 43.7499 102.569 43.827 101.346 43.6804L101.337 43.6792L101.327 43.6779C99.8526 43.4673 98.0782 42.7625 96.2746 41.9341C95.2404 41.459 94.1362 40.9136 93.0436 40.3739C92.2444 39.9792 91.4513 39.5874 90.6965 39.2286C88.8568 38.3541 87.1736 37.6388 85.8081 37.3254C85.1264 37.169 84.5785 37.1263 84.1607 37.1839C83.754 37.2399 83.5315 37.3806 83.3982 37.5376M83.3982 37.5376C83.3987 37.537 83.3992 37.5364 83.3997 37.5358L82.7242 36.8268M83.3982 37.5376C83.3978 37.538 83.3974 37.5385 83.3971 37.5389L82.7242 36.8268M83.3982 37.5376C81.5687 39.7201 80.2099 42.5786 79.0506 45.8184C78.1558 48.3193 77.4012 50.9814 76.6353 53.6838C76.4061 54.4923 76.1759 55.3044 75.9406 56.117C74.9291 59.6103 73.828 63.0912 72.3316 66.1022C70.8303 69.1231 68.9006 71.7344 66.2033 73.4251M82.7242 36.8268C79.2656 40.9515 77.4951 47.1987 75.7316 53.4209C73.5134 61.2477 71.3064 69.035 65.765 72.5082M65.765 72.5082L66.2039 73.4247C66.2037 73.4249 66.2035 73.425 66.2033 73.4251M65.765 72.5082L66.2029 73.4254C66.203 73.4253 66.2031 73.4252 66.2033 73.4251" stroke="#BB6BD9" stroke-width="2" stroke-miterlimit="10"/>
<path d="M121.656 160.225L121.66 160.226C126.377 161.171 131.486 160.836 134.736 157.383M121.656 160.225L135.372 158.137M121.656 160.225C118.304 159.571 115.03 158.44 111.687 157.262C111.546 157.213 111.406 157.163 111.265 157.114C108.077 155.991 104.821 154.843 101.459 154.103M121.656 160.225L101.24 155.137M134.736 157.383C134.736 157.383 134.736 157.383 134.736 157.383L135.372 158.137M134.736 157.383C134.736 157.384 134.735 157.384 134.735 157.384L135.372 158.137M134.736 157.383C138.501 153.37 139.5 146.59 139.31 139.152C139.179 133.988 138.49 128.751 137.89 124.19C137.629 122.204 137.384 120.346 137.21 118.679L137.21 118.677C137.042 117.05 136.839 115.333 136.628 113.559C136.231 110.213 135.81 106.662 135.561 103.121C135.178 97.676 135.185 92.0903 136.308 86.9385L136.309 86.9321C136.739 85.0102 137.323 83.137 138.09 81.3555L138.093 81.3477C139.384 78.409 141.254 76.1609 143.008 74.0528C143.307 73.6927 143.603 73.3366 143.893 72.9819C145.903 70.5168 147.672 68.0313 148.508 64.4321L148.508 64.4312C149.328 60.9168 148.68 55.2485 146.655 49.381C144.646 43.5601 141.355 37.7569 137.108 33.9369M135.372 158.137C142.335 150.715 140.276 135.056 138.812 123.923C138.553 121.958 138.313 120.134 138.145 118.521C137.974 116.857 137.768 115.123 137.556 113.341C136.555 104.904 135.426 95.3953 137.222 87.156C137.637 85.2969 138.2 83.4947 138.935 81.7881C140.156 79.0074 141.915 76.8908 143.67 74.7786C146.032 71.9358 148.388 69.101 149.419 64.6657C151.206 57.0035 146.516 41.004 137.689 33.0843M137.108 33.9369C137.118 33.9444 137.127 33.9519 137.137 33.9592L137.689 33.0843M137.108 33.9369C137.101 33.9303 137.093 33.9236 137.086 33.917L137.689 33.0843M137.108 33.9369C137.045 33.8864 136.981 33.832 136.931 33.7896L136.924 33.7837C136.857 33.7271 136.812 33.6888 136.776 33.6608L136.755 33.6448L136.735 33.6275C133.55 30.8517 130.566 29.8713 127.767 29.3181L127.765 29.3177C119.117 27.5815 110.307 29.3184 104.796 37.2852L104.788 37.2967L104.779 37.3079C103.869 38.5542 102.458 38.7091 101.098 38.5059C99.5246 38.2711 97.6234 37.4979 95.6831 36.587C94.5779 36.0682 93.3983 35.4737 92.2294 34.8846C91.3609 34.4469 90.4983 34.0121 89.6766 33.6136C87.6943 32.6523 85.875 31.8631 84.3974 31.5151C83.6595 31.3414 83.0626 31.2918 82.6043 31.3547C82.1576 31.416 81.9029 31.5737 81.7455 31.7626M137.689 33.0843C137.633 33.041 137.571 32.9881 137.509 32.9351C137.447 32.8822 137.384 32.8292 137.328 32.7859C133.99 29.8774 130.853 28.8501 127.961 28.2785C119.138 26.5072 109.885 28.2346 104.059 36.6561C103.484 37.4435 102.527 37.6498 101.253 37.4597C98.9907 37.1219 95.8356 35.531 92.6637 33.9317C87.7563 31.4573 82.8088 28.9626 81.0667 31.0576M81.7455 31.7626C81.7459 31.7622 81.7462 31.7619 81.7465 31.7615L81.0667 31.0576M81.7455 31.7626C81.7454 31.7628 81.7452 31.763 81.745 31.7633L81.0667 31.0576M81.7455 31.7626C79.789 34.1262 78.3419 37.2203 77.1103 40.7197C76.1671 43.3997 75.3716 46.251 74.5648 49.1424C74.3154 50.0361 74.065 50.9337 73.8088 51.8312C72.7338 55.597 71.5622 59.342 69.9642 62.5771C68.3613 65.8224 66.2989 68.6187 63.4137 70.4221M81.0667 31.0576C77.3969 35.49 75.5252 42.1987 73.6597 48.8852C71.2991 57.3463 68.9484 65.7718 62.9768 69.5043M62.9768 69.5043L63.4139 70.422C63.4139 70.422 63.4138 70.4221 63.4137 70.4221M62.9768 69.5043C56.9802 73.255 52.8142 78.5484 48.5739 83.9363C46.4062 86.6906 44.2191 89.4696 41.7581 92.0798C39.9754 93.9632 35.228 93.6681 30.4445 93.3708C25.2786 93.0496 20.0707 92.7259 18.51 95.1408M62.9768 69.5043L63.4137 70.4221M63.4137 70.4221C59.0169 73.1722 55.6145 76.7876 52.3797 80.7248C51.3545 81.9726 50.3378 83.2641 49.309 84.5712C47.1248 87.346 44.8857 90.1907 42.3926 92.8349L42.3912 92.8364C41.7581 93.5053 40.9156 93.9107 40.0222 94.1672C39.1204 94.4262 38.0866 94.5558 36.9947 94.6111C34.9891 94.7126 32.6541 94.5673 30.3718 94.4253C30.1766 94.4131 29.9818 94.401 29.7876 94.3891C27.2881 94.2353 24.8917 94.1114 22.9396 94.3026C21.9659 94.398 21.15 94.5682 20.5126 94.826C19.875 95.0839 19.4865 95.4005 19.267 95.7391M19.267 95.7391C19.2675 95.7384 19.2679 95.7376 19.2684 95.7369L18.51 95.1408M19.267 95.7391C19.2666 95.7397 19.2662 95.7403 19.2658 95.7409L18.51 95.1408M19.267 95.7391C17.5454 98.4291 16.9147 101.816 17.0919 105.687C17.2693 109.563 18.2539 113.838 19.6765 118.198C22.0093 125.348 25.4592 132.56 28.2674 138.429C28.8894 139.73 29.4799 140.964 30.0199 142.117L30.0204 142.118C32.4971 147.426 35.7579 152.218 39.3332 156.738M18.51 95.1408C11.6199 105.902 21.2106 125.946 27.4459 138.977C28.0645 140.27 28.65 141.493 29.1832 142.632C31.7063 148.039 35.0181 152.9 38.6206 157.454M39.3332 156.738C39.3329 156.738 39.3326 156.737 39.3323 156.737L38.6206 157.454M39.3332 156.738C39.3335 156.739 39.3338 156.739 39.3341 156.739L38.6206 157.454M39.3332 156.738C44.025 162.633 49.8586 167.408 55.984 169.287C62.0617 171.151 68.4533 170.182 74.4486 164.538L74.4502 164.537C80.3221 159.033 85.3619 154.732 91.9708 153.633L91.9772 153.632C94.8129 153.183 97.9157 153.251 101.459 154.103M38.6206 157.454C48.1485 169.426 62.5176 177.125 75.0394 165.337C80.9219 159.823 85.7694 155.726 92.078 154.677C94.8012 154.246 97.7957 154.308 101.24 155.137M101.459 154.103C101.456 154.102 101.454 154.102 101.451 154.101L101.24 155.137M101.459 154.103C101.462 154.103 101.464 154.104 101.467 154.105L101.24 155.137" stroke="#BB6BD9" stroke-width="2" stroke-miterlimit="10"/>
</svg>
