<svg width="70" height="70" viewBox="0 0 70 70" fill="none" xmlns="http://www.w3.org/2000/svg">
<g filter="url(#filter0_dd_309_15976)">
<circle cx="35" cy="31" r="29" fill="white"/>
</g>
<circle cx="35" cy="31" r="26" fill="#EBE0FF"/>
<g clip-path="url(#clip0_309_15976)">
<path d="M33.2384 19.6013L27.4167 21.7947C26.0751 22.2963 24.9784 23.883 24.9784 25.3063V33.9747C24.9784 35.3513 25.8884 37.1597 26.9967 37.988L32.0134 41.733C33.6584 42.9697 36.3651 42.9697 38.0101 41.733L43.0267 37.988C44.1351 37.1597 45.0451 35.3513 45.0451 33.9747V25.3063C45.0451 23.8713 43.9484 22.2847 42.6067 21.783L36.7851 19.6013C35.7934 19.2397 34.2067 19.2397 33.2384 19.6013Z" stroke="#4700C6" stroke-width="1.5" stroke-linecap="round" stroke-linejoin="round"/>
<path d="M31.5583 30.8483L33.4367 32.7266L38.4533 27.71" stroke="#4700C6" stroke-width="1.5" stroke-linecap="round" stroke-linejoin="round"/>
</g>
<defs>
<filter id="filter0_dd_309_15976" x="0" y="0" width="70" height="70" filterUnits="userSpaceOnUse" color-interpolation-filters="sRGB">
<feFlood flood-opacity="0" result="BackgroundImageFix"/>
<feColorMatrix in="SourceAlpha" type="matrix" values="0 0 0 0 0 0 0 0 0 0 0 0 0 0 0 0 0 0 127 0" result="hardAlpha"/>
<feMorphology radius="2" operator="erode" in="SourceAlpha" result="effect1_dropShadow_309_15976"/>
<feOffset dy="2"/>
<feGaussianBlur stdDeviation="2"/>
<feColorMatrix type="matrix" values="0 0 0 0 0.0627451 0 0 0 0 0.0941176 0 0 0 0 0.156863 0 0 0 0.06 0"/>
<feBlend mode="normal" in2="BackgroundImageFix" result="effect1_dropShadow_309_15976"/>
<feColorMatrix in="SourceAlpha" type="matrix" values="0 0 0 0 0 0 0 0 0 0 0 0 0 0 0 0 0 0 127 0" result="hardAlpha"/>
<feMorphology radius="2" operator="erode" in="SourceAlpha" result="effect2_dropShadow_309_15976"/>
<feOffset dy="4"/>
<feGaussianBlur stdDeviation="4"/>
<feColorMatrix type="matrix" values="0 0 0 0 0.0627451 0 0 0 0 0.0941176 0 0 0 0 0.156863 0 0 0 0.1 0"/>
<feBlend mode="normal" in2="effect1_dropShadow_309_15976" result="effect2_dropShadow_309_15976"/>
<feBlend mode="normal" in="SourceGraphic" in2="effect2_dropShadow_309_15976" result="shape"/>
</filter>
<clipPath id="clip0_309_15976">
<rect width="28" height="28" fill="white" transform="translate(21 17)"/>
</clipPath>
</defs>
</svg>
