<svg width="18" height="18" viewBox="0 0 18 18" fill="none" xmlns="http://www.w3.org/2000/svg">
<path d="M9.00001 11.25C6.62245 11.25 4.50811 12.398 3.16201 14.1795C2.87229 14.5629 2.72743 14.7546 2.73217 15.0137C2.73583 15.2139 2.86153 15.4664 3.01904 15.59C3.2229 15.75 3.50541 15.75 4.07043 15.75H13.9296C14.4946 15.75 14.7771 15.75 14.981 15.59C15.1385 15.4664 15.2642 15.2139 15.2679 15.0137C15.2726 14.7546 15.1277 14.5629 14.838 14.1795C13.4919 12.398 11.3776 11.25 9.00001 11.25Z" stroke="#344054" stroke-width="1.64" stroke-linecap="round" stroke-linejoin="round"/>
<path d="M9.00001 9C10.864 9 12.375 7.48896 12.375 5.625C12.375 3.76104 10.864 2.25 9.00001 2.25C7.13605 2.25 5.62501 3.76104 5.62501 5.625C5.62501 7.48896 7.13605 9 9.00001 9Z" stroke="#344054" stroke-width="1.64" stroke-linecap="round" stroke-linejoin="round"/>
</svg>
